<svg version="1.1" xmlns="http://www.w3.org/2000/svg" viewBox="0 0 59.2 20.0" width="592.0" height="200.0" preserveAspectRatio="xMidYMid meet" data-code="OF X 01">
    <!--Autogenerated with python-barcode 0.16.1-->
    <g id="barcode_group">
        <rect width="100%" height="100%" style="fill:white"/>
        <rect x="10.000" y="1.000" width="0.700" height="18.000" style="fill:black;"/>
        <rect x="11.050" y="1.000" width="0.350" height="18.000" style="fill:black;"/>
        <rect x="12.100" y="1.000" width="0.350" height="18.000" style="fill:black;"/>
        <rect x="13.850" y="1.000" width="0.350" height="18.000" style="fill:black;"/>
        <rect x="15.250" y="1.000" width="1.050" height="18.000" style="fill:black;"/>
        <rect x="16.650" y="1.000" width="0.700" height="18.000" style="fill:black;"/>
        <rect x="17.700" y="1.000" width="0.350" height="18.000" style="fill:black;"/>
        <rect x="19.100" y="1.000" width="0.700" height="18.000" style="fill:black;"/>
        <rect x="20.850" y="1.000" width="0.350" height="18.000" style="fill:black;"/>
        <rect x="21.550" y="1.000" width="0.700" height="18.000" style="fill:black;"/>
        <rect x="22.600" y="1.000" width="0.700" height="18.000" style="fill:black;"/>
        <rect x="24.000" y="1.000" width="0.700" height="18.000" style="fill:black;"/>
        <rect x="25.400" y="1.000" width="1.050" height="18.000" style="fill:black;"/>
        <rect x="27.500" y="1.000" width="0.350" height="18.000" style="fill:black;"/>
        <rect x="28.200" y="1.000" width="0.700" height="18.000" style="fill:black;"/>
        <rect x="29.250" y="1.000" width="0.700" height="18.000" style="fill:black;"/>
        <rect x="30.300" y="1.000" width="0.700" height="18.000" style="fill:black;"/>
        <rect x="31.700" y="1.000" width="0.700" height="18.000" style="fill:black;"/>
        <rect x="33.100" y="1.000" width="0.350" height="18.000" style="fill:black;"/>
        <rect x="34.150" y="1.000" width="1.050" height="18.000" style="fill:black;"/>
        <rect x="35.550" y="1.000" width="0.700" height="18.000" style="fill:black;"/>
        <rect x="36.950" y="1.000" width="0.350" height="18.000" style="fill:black;"/>
        <rect x="38.000" y="1.000" width="1.050" height="18.000" style="fill:black;"/>
        <rect x="39.750" y="1.000" width="0.700" height="18.000" style="fill:black;"/>
        <rect x="40.800" y="1.000" width="1.050" height="18.000" style="fill:black;"/>
        <rect x="42.200" y="1.000" width="1.050" height="18.000" style="fill:black;"/>
        <rect x="43.600" y="1.000" width="0.700" height="18.000" style="fill:black;"/>
        <rect x="44.650" y="1.000" width="0.700" height="18.000" style="fill:black;"/>
        <rect x="46.400" y="1.000" width="1.050" height="18.000" style="fill:black;"/>
        <rect x="47.800" y="1.000" width="0.350" height="18.000" style="fill:black;"/>
        <rect x="48.500" y="1.000" width="0.700" height="18.000" style="fill:black;"/>
    </g>
</svg>